<?xml version="1.0" encoding="UTF-8"?>
<svg id="Layer_17" data-name="Layer 17" xmlns="http://www.w3.org/2000/svg" viewBox="0 0 1920 1080">
  <defs>
    <style>
      .cls-1 {
        fill: #fff;
      }

      .cls-2 {
        fill: #f16522;
      }
    </style>
  </defs>
  <circle class="cls-2" cx="960" cy="540" r="432"/>
  <path class="cls-1" d="M1191.88,530.04l-35.7-16.22v-172.98c0-6.18-5.01-11.18-11.18-11.18h-99.69c-4.91,0-9.25,3.21-10.69,7.91l-74.62,243.36-74.62-243.36c-1.44-4.7-5.78-7.91-10.69-7.91h-99.69c-6.18,0-11.18,5.01-11.18,11.18v172.94l-35.65,16.02c-4,1.8-6.58,5.77-6.6,10.16-.02,4.39,2.54,8.38,6.53,10.21l35.9,16.44v172.56c0,6.18,5.01,11.18,11.18,11.18h99.69c4.99,0,9.37-3.3,10.75-8.09,1.38-4.79-.58-9.92-4.81-12.57l-56.04-35.12v-136.32c0-2.97-1.18-5.81-3.28-7.91l-10.34-10.34,10.17-10.17c2.1-2.1,3.28-4.94,3.28-7.91v-131.49h14.15l110.59,352.08c1.46,4.66,5.78,7.83,10.67,7.83s9.21-3.17,10.67-7.83l110.59-352.08h14.15v131.49c0,2.97,1.18,5.81,3.28,7.91l10.17,10.17-10.34,10.34c-2.1,2.1-3.28,4.94-3.28,7.91v136.32l-56.04,35.12c-4.23,2.65-6.19,7.77-4.81,12.57,1.38,4.79,5.76,8.09,10.75,8.09h99.69c6.18,0,11.18-5.01,11.18-11.18v-172.52l35.85-16.23c4-1.81,6.57-5.79,6.57-10.18,0-4.39-2.56-8.37-6.56-10.19Z"/>
</svg>